<?xml version="1.0" encoding="UTF-8"?>
<!-- Generated by Pixelmator Pro 3.6.4 -->
<svg width="257" height="210" viewBox="0 0 257 210" xmlns="http://www.w3.org/2000/svg">
    <path id="Path" fill="#000000" stroke="none" d="M 0.75 91.220001 C 0.72 82.610001 0.68 74 0.66 65.389999 C 0.66 62.020004 0.66 58.649994 0.74 55.290009 C 0.95 47.660004 3.77 41.029999 8.7 35.259995 C 12.26 31.100006 16.4 27.669998 21.42 25.330002 C 25.540001 23.410004 29.870001 22.589996 34.369999 22.570007 C 44.799999 22.539993 55.23 22.570007 65.660004 22.570007 C 65.800003 22.570007 65.940002 22.589996 66.18 22.610001 L 66.18 23.399994 C 66.18 37.259995 66.120003 51.130005 66.209999 64.990005 C 66.25 71.220001 68.940002 76.229996 74.160004 79.740005 C 76.419998 81.259995 78.959999 82.030006 81.730003 81.949997 C 83.059998 81.910004 84.379997 81.910004 85.709999 81.949997 C 86.25 81.970001 86.370003 81.789993 86.370003 81.289993 C 86.360001 75.960007 86.349998 70.630005 86.370003 65.300003 C 86.370003 61.949997 86.370003 58.610001 86.470001 55.259995 C 86.68 47.649994 89.480003 41.029999 94.410004 35.290009 C 98.040001 31.050003 102.239998 27.520004 107.400002 25.210007 C 111.419998 23.410004 115.639999 22.589996 120.010002 22.570007 C 130.419998 22.529999 140.830002 22.550003 151.240005 22.539993 C 151.679993 22.539993 151.919998 22.589996 151.910004 23.139999 C 151.869995 29.669998 151.839996 36.199997 151.839996 42.729996 C 151.839996 58.119995 151.839996 73.520004 151.839996 88.910004 C 151.839996 89.68 151.720001 90.450005 151.660004 91.230003 L 78.629997 91.230003 C 79.029999 91.160004 79.43 91.100006 79.82 91.030006 C 74.5 90.780006 70.059998 88.630005 66.18 84.920006 C 66.18 85.32 66.18 85.600006 66.18 85.880005 C 66.18 87.660004 66.18 89.450005 66.18 91.230003 L 0.75 91.230003 Z M 107 81.919998 C 107.190002 81.940002 107.290001 81.960007 107.389999 81.960007 C 113.940002 81.960007 120.489998 81.949997 127.040001 81.940002 C 128.279999 81.940002 129.529999 81.919998 130.770004 81.940002 C 131.149994 81.940002 131.279999 81.830002 131.279999 81.449997 C 131.279999 80.690002 131.330002 79.919998 131.330002 79.160004 C 131.330002 63.5 131.309998 47.850006 131.330002 32.190002 C 131.330002 31.600006 131.110001 31.559998 130.649994 31.559998 C 129.199997 31.580002 127.75 31.559998 126.300003 31.580002 C 123.860001 31.610001 121.400002 31.529999 118.970001 31.740005 C 112.959999 32.259995 106.970001 37.610001 106.989998 44.949997 C 107.029999 57.029999 107 69.119995 107 81.199997 L 107 81.929993 Z M 45.57 56.690002 L 45.57 56.690002 C 45.57 48.529999 45.57 40.369995 45.57 32.210007 C 45.57 31.839996 45.619999 31.540009 45.060001 31.540009 C 41.52 31.570007 37.970001 31.5 34.43 31.600006 C 30.629999 31.710007 27.42 33.229996 24.799999 35.979996 C 22.09 38.820007 21.209999 42.270004 21.219999 46.089996 C 21.26 57.820007 21.25 69.550003 21.24 81.289993 C 21.24 81.819992 21.4 81.949997 21.91 81.949997 C 29.5 81.940002 37.080002 81.940002 44.669998 81.940002 C 45.263334 81.940002 45.560001 81.639999 45.560001 81.039993 C 45.560001 72.919998 45.560001 64.800003 45.560001 56.690002 Z"/>
    <path id="path1" fill="#000000" stroke="none" d="M 158.5 91.220001 C 158.470001 71.529999 158.440002 51.850006 158.410004 32.160004 C 158.399994 22.740005 158.410004 13.320007 158.380005 3.899994 C 158.380005 3.360001 158.679993 3.289993 159.059998 3.229996 C 161.229996 2.889999 163.399994 2.559998 165.559998 2.220001 C 169.380005 1.619995 173.210007 1.009995 177.029999 0.410004 C 177.520004 0.330002 178.020004 0.289993 178.5 0.179993 C 178.880005 0.100006 179 0.25 178.990005 0.589996 C 178.990005 1 178.990005 1.419998 178.990005 1.830002 C 178.990005 28.130005 178.990005 54.430008 179 80.740005 C 179 81.55334 179.399999 81.95667 180.199997 81.949997 C 198.839996 81.949997 217.479996 81.949997 236.119995 81.949997 C 237.179993 81.949997 237.029999 82.030006 237.029999 81.009995 C 237.029999 64.850006 237.029999 48.699997 237.039993 32.540009 C 237.039993 32.25 237.039993 31.960007 237.039993 31.610001 L 189.279999 31.610001 C 189.389999 31.330002 189.460007 31.149994 189.539993 30.970001 C 192.470001 25.029999 195.399994 19.089996 198.339996 13.149994 C 200.279999 9.229996 202.259995 5.330002 204.199997 1.399994 C 204.830002 0.119995 204.809998 0.100006 206.100006 0.740005 C 211.600006 3.470001 217.100006 6.210007 222.600006 8.949997 C 222.839996 9.070007 223.070007 9.199997 223.339996 9.350006 C 221.149994 13.729996 218.990005 18.080002 216.75 22.559998 L 257.559998 22.559998 L 257.559998 89.950005 C 257.559998 89.950005 257.619995 89.950005 257.649994 89.950005 C 257.649994 89.630005 257.649994 89.310005 257.649994 88.990005 C 257.649994 67.880005 257.630005 46.770004 257.630005 25.660004 C 257.630005 25.110001 257.730011 24.559998 257.779999 24.020004 L 257.779999 91.220001 L 158.5 91.220001 Z"/>
    <path id="path2" fill="#000000" stroke="none" d="M 143.789993 1.509995 L 143.789993 16.309998 L 128.940002 16.309998 L 128.940002 1.509995 L 143.789993 1.509995 Z"/>
    <path id="path3" fill="#000000" stroke="none" d="M 0.25 101.410004 C 1.41 101.230003 2.57 101.050003 3.73 100.870003 C 6.82 100.390007 9.91 99.900002 13 99.43 C 15.37 99.07 17.75 98.720001 20.129999 98.370003 C 20.35 98.340004 20.58 98.330002 20.84 98.310005 C 20.860001 98.490005 20.9 98.630005 20.9 98.760002 C 20.9 119.240005 20.879999 139.709991 20.870001 160.190002 C 20.870001 166.459991 20.889999 172.720001 20.870001 178.98999 C 20.870001 179.569992 21.030001 179.709991 21.6 179.709991 C 29.5 179.699997 37.400002 179.709991 45.299999 179.709991 C 45.509998 179.709991 45.709999 179.709991 46.029999 179.709991 C 46.029999 179.409988 46.029999 179.149994 46.029999 178.899994 C 46.029999 160.800003 46.029999 142.709991 46.009998 124.610001 C 46.009998 123.950005 46.220001 123.720001 46.84 123.620003 C 51.919998 122.840004 56.990002 122.040001 62.060001 121.25 C 63.389999 121.040001 64.720001 120.850006 66.040001 120.600006 C 66.529999 120.510002 66.639999 120.68 66.639999 121.090004 C 66.639999 122 66.629997 122.910004 66.629997 123.82 C 66.629997 136.869995 66.629997 149.919998 66.629997 162.970001 C 66.629997 168.139999 68.690002 172.440002 72.449997 175.919998 C 75.169998 178.440002 78.410004 179.720001 82.160004 179.709991 C 89.889999 179.690002 97.629997 179.709991 105.360001 179.709991 C 113.32 179.709991 121.279999 179.699997 129.240005 179.690002 C 130.770004 179.690002 130.759995 179.690002 130.759995 178.159988 C 130.759995 153.259995 130.759995 128.360016 130.759995 103.450005 C 130.759995 103 130.789993 102.540001 130.729996 102.090004 C 130.679993 101.620003 130.860001 101.400002 131.309998 101.330002 C 132.839996 101.090004 134.369995 100.830002 135.910004 100.590004 C 138.240005 100.220001 140.570007 99.860001 142.910004 99.510002 C 145.490005 99.120003 148.070007 98.740005 150.649994 98.360001 C 150.850006 98.330002 151.059998 98.330002 151.330002 98.32 C 151.330002 98.690002 151.330002 99.010002 151.330002 99.330002 C 151.330002 128.600006 151.350006 157.860001 151.360001 187.12999 C 151.360001 188.729996 151.360001 188.699997 149.740005 188.699997 C 139.25 188.690002 128.759995 188.679993 118.269997 188.699997 C 114.68 188.699997 111.099998 188.800003 107.510002 188.789993 C 98.989998 188.779999 90.470001 188.679993 81.949997 188.720001 C 76.279999 188.75 71.360001 186.919998 67.129997 183.190002 C 67 183.069992 66.849998 182.970001 66.610001 182.779999 C 66.610001 183.149994 66.610001 183.389999 66.610001 183.62999 C 66.610001 185.119995 66.610001 186.610001 66.629997 188.099991 C 66.629997 188.559998 66.489998 188.729996 65.980003 188.729996 C 44.869999 188.709991 23.77 188.709991 2.66 188.699997 C 1.85 188.699997 1.04 188.690002 0.23 188.679993 C 0.23 159.599991 0.23 130.519989 0.23 101.440002 Z"/>
    <path id="path4" fill="#000000" stroke="none" d="M 236.289993 129.660004 L 188.470001 129.660004 C 188.520004 129.5 188.550003 129.360016 188.610001 129.23999 C 191.300003 123.82 193.990005 118.400002 196.690002 112.980003 C 199.059998 108.230003 201.429993 103.480003 203.800003 98.730003 C 203.970001 98.390007 204.119995 98.270004 204.509995 98.460007 C 210.360001 101.380005 216.210007 104.290001 222.070007 107.18 C 222.449997 107.370003 222.419998 107.57 222.270004 107.870003 C 221.699997 109.020004 221.149994 110.170006 220.580002 111.32 C 219.070007 114.330002 217.559998 117.340004 216.050003 120.350006 C 216.020004 120.420006 216.009995 120.5 215.960007 120.640007 C 216.270004 120.640007 216.539993 120.640007 216.800003 120.640007 C 229.899994 120.640007 243.009995 120.640007 256.109985 120.630005 C 256.679993 120.630005 256.899994 120.730003 256.899994 121.360001 C 256.890015 142.679993 256.899994 164.009995 256.899994 185.330002 C 256.899994 186.449997 256.880005 187.559998 256.899994 188.679993 C 256.899994 189.119995 256.75 189.25 256.320007 189.25 C 230.860001 189.220001 205.399994 189.199997 179.940002 189.179993 C 172.75 189.179993 165.550003 189.190002 158.360001 189.220001 C 157.830002 189.220001 157.759995 188.98999 157.759995 188.539993 C 157.759995 165.069992 157.770004 141.589996 157.770004 118.120003 C 157.770004 112.910004 157.770004 107.700005 157.770004 102.480003 C 157.770004 102.310005 157.770004 102.150002 157.770004 101.980003 C 157.779999 101.610001 157.899994 101.43 158.339996 101.360001 C 163.970001 100.5 169.589996 99.610001 175.220001 98.730003 C 176.240005 98.57 177.259995 98.410004 178.360001 98.240005 L 178.360001 180.139999 C 179.020004 180.139999 179.610001 180.139999 180.199997 180.139999 C 193.800003 180.12999 207.399994 180.110001 221 180.099991 C 225.889999 180.099991 230.789993 180.089996 235.679993 180.099991 C 236.210007 180.099991 236.300003 179.929993 236.300003 179.459991 C 236.289993 163.470001 236.289993 147.48999 236.279999 131.5 C 236.279999 130.880005 236.279999 130.269989 236.279999 129.619995 Z"/>
    <path id="path5" fill="#000000" stroke="none" d="M 47.119999 209.619995 C 42.360001 209.619995 37.599998 209.610001 32.84 209.62999 C 32.27 209.62999 32.25 209.360001 32.25 208.949997 C 32.25 204.769989 32.25 200.599991 32.25 196.419998 C 32.25 196.12999 32.27 195.830002 32.209999 195.550003 C 32.09 195.019989 32.349998 194.889999 32.799999 194.889999 C 33.130001 194.889999 33.459999 194.87999 33.790001 194.87999 C 42.91 194.87999 52.029999 194.87999 61.150002 194.87999 C 61.75 194.87999 61.970001 194.98999 61.959999 195.659988 C 61.93 200.110001 61.939999 204.550003 61.959999 209 C 61.959999 209.479996 61.84 209.639999 61.330002 209.639999 C 56.59 209.619995 51.849998 209.62999 47.110001 209.62999 C 47.110001 209.62999 47.110001 209.62999 47.110001 209.62999 Z"/>
</svg>
